<svg width="21" height="19" viewBox="0 0 21 19" fill="none" xmlns="http://www.w3.org/2000/svg">
<path fill-rule="evenodd" clip-rule="evenodd" d="M20.5178 13.0114V0.183838H2.74004L0.517822 2.4597V14.4597H6.07338V18.1838H8.51782L11.1845 15.4942H17.8512L20.5178 13.0114ZM7.40674 12.8046H3.85118C3.60674 12.8046 3.40674 12.6184 3.40674 12.3908V2.25288C3.40674 2.0253 3.60674 1.83909 3.85118 1.83909H18.0734C18.3179 1.83909 18.5178 2.0253 18.5178 2.25288V10.115C18.5178 10.2287 18.4734 10.3322 18.3901 10.4098L15.9456 12.6856C15.8623 12.7632 15.7456 12.8046 15.629 12.8046H11.5456L8.10118 15.0081C8.02896 15.0546 7.94007 15.0805 7.85118 15.0805C7.77896 15.0805 7.71229 15.065 7.64563 15.0339C7.49563 14.9615 7.40674 14.8218 7.40674 14.6667V12.8046Z" fill="white"/>
<path d="M14.0733 9.18398V5.04605H12.2955V9.18398H14.0733ZM9.62885 9.18398V5.04605H7.85107V9.18398H9.62885Z" fill="white"/>
</svg>
